<?xml version="1.0" standalone="no"?>
<!DOCTYPE svg PUBLIC "-//W3C//DTD SVG 20010904//EN"
 "http://www.w3.org/TR/2001/REC-SVG-20010904/DTD/svg10.dtd">
<svg version="1.0" xmlns="http://www.w3.org/2000/svg"
 width="1000.000000pt" height="1000.000000pt" viewBox="0 0 1000.000000 1000.000000"
 preserveAspectRatio="xMidYMid meet">

<g transform="translate(0.000000,1000.000000) scale(0.100000,-0.100000)"
fill="#000000" stroke="none">
<path d="M6357 6000 c-130 -27 -193 -71 -264 -183 -76 -121 -115 -268 -183
-698 -44 -280 -59 -358 -86 -451 -4 -15 1 -18 26 -18 73 0 142 68 160 157 34
173 68 257 145 362 50 68 90 95 105 70 11 -17 8 -40 -32 -259 -49 -269 -41
-330 43 -330 52 0 85 18 136 73 53 57 73 96 80 158 8 64 -10 65 -38 0 -11 -27
-31 -59 -44 -71 -25 -23 -55 -21 -55 3 0 7 18 109 40 226 22 117 40 230 40
252 0 160 -153 135 -301 -49 -33 -40 -59 -66 -59 -57 0 31 51 361 67 430 18
79 52 163 89 216 30 44 84 74 148 84 54 7 106 50 106 86 0 23 -9 23 -123 -1z"/>
<path d="M775 5806 c-103 -33 -144 -81 -164 -190 -7 -40 -11 -324 -11 -840 l1
-781 53 110 c98 204 283 450 457 609 35 32 141 118 234 191 266 208 358 310
423 467 21 51 26 85 30 178 l5 115 49 -55 c171 -191 163 -428 -23 -702 -153
-225 -205 -308 -265 -423 -209 -402 -202 -694 19 -861 123 -93 243 -127 370
-106 231 40 389 237 374 466 -2 45 -14 105 -25 133 -29 76 -105 177 -178 236
-73 61 -67 67 53 47 242 -39 424 -203 483 -436 115 -447 -289 -888 -810 -886
-165 1 -305 43 -434 130 -109 75 -225 229 -274 365 -41 112 -54 190 -54 318 0
167 39 321 123 486 l47 93 -48 -41 c-92 -77 -170 -184 -232 -316 -155 -330
-71 -749 204 -1024 144 -144 304 -230 523 -281 117 -27 342 -29 460 -5 427 87
742 378 846 783 26 104 31 298 10 399 -67 323 -265 582 -555 728 l-69 34 64
32 c129 63 227 176 275 316 87 252 -31 541 -270 662 -118 60 -75 57 -896 60
-593 2 -764 -1 -795 -11z"/>
<path d="M9090 5765 c0 -11 12 -15 50 -15 l50 0 0 -145 c0 -122 2 -145 15
-145 13 0 15 23 15 145 l0 145 55 0 c42 0 55 3 55 15 0 13 -20 15 -120 15
-100 0 -120 -2 -120 -15z"/>
<path d="M9380 5621 c0 -136 2 -161 15 -161 13 0 15 23 16 143 l0 142 56 -142
c31 -79 62 -143 68 -143 7 0 33 53 58 118 26 64 51 128 56 142 7 18 10 -14 10
-117 1 -120 3 -143 16 -143 13 0 15 24 15 160 l0 160 -24 0 c-21 0 -29 -13
-71 -122 -26 -68 -51 -127 -55 -131 -4 -4 -29 50 -56 120 -45 117 -52 128 -77
131 l-27 3 0 -160z"/>
<path d="M3805 5744 c-86 -20 -117 -31 -168 -56 -70 -35 -131 -88 -169 -147
-50 -79 -30 -121 28 -60 44 47 146 117 195 135 60 21 194 29 247 15 23 -7 57
-25 74 -40 29 -25 32 -35 36 -95 4 -57 0 -74 -22 -121 -40 -80 -72 -99 -175
-104 l-83 -3 6 28 c3 16 10 65 17 109 6 44 17 95 25 114 8 18 14 37 14 42 0
18 -65 8 -106 -16 -76 -44 -77 -49 -129 -390 -26 -176 -53 -320 -61 -332 -8
-12 -28 -33 -45 -45 -35 -26 -59 -66 -59 -99 0 -17 4 -20 23 -15 54 16 138 18
256 6 110 -11 134 -10 194 4 188 44 311 171 311 320 0 81 -29 140 -99 204
l-54 49 44 32 c49 35 95 96 113 150 19 53 15 146 -7 189 -46 89 -122 124 -276
128 -60 2 -119 1 -130 -2z m170 -638 c96 -96 85 -235 -22 -287 -37 -18 -65
-23 -128 -23 -103 0 -139 9 -129 32 5 13 50 276 53 315 1 4 42 7 91 7 l91 0
44 -44z"/>
<path d="M8061 5687 c-13 -6 -32 -23 -42 -37 -20 -26 -53 -176 -43 -192 14
-22 117 14 139 49 13 20 45 150 45 184 0 13 -71 11 -99 -4z"/>
<path d="M4553 5385 c-72 -31 -173 -166 -173 -230 0 -41 22 -28 62 35 37 60
63 75 75 44 7 -18 -62 -443 -83 -514 -19 -62 -18 -70 12 -70 35 0 86 25 118
59 22 23 33 52 52 141 42 200 83 293 153 353 58 48 120 29 107 -33 -7 -36 9
-40 47 -10 60 47 88 169 47 210 -66 66 -177 9 -274 -139 l-35 -54 6 90 c5 83
4 92 -16 112 -24 24 -52 26 -98 6z"/>
<path d="M5427 5390 c-201 -51 -387 -320 -387 -561 0 -156 63 -213 174 -159
44 21 115 83 160 140 l28 35 -7 -53 c-7 -62 8 -117 35 -132 78 -42 200 44 245
171 29 82 11 137 -20 62 -35 -84 -95 -130 -110 -84 -6 19 76 487 94 533 9 24
7 27 -22 38 -45 16 -145 21 -190 10z m54 -127 c18 -18 -19 -154 -66 -250 -73
-148 -187 -255 -209 -197 -19 49 10 213 54 310 16 35 49 83 75 110 45 44 49
46 92 41 25 -2 49 -9 54 -14z"/>
<path d="M6823 5385 c-72 -31 -173 -166 -173 -230 0 -41 22 -28 62 35 27 43
43 60 59 60 21 0 21 -3 15 -62 -10 -84 -42 -271 -68 -388 -34 -159 -34 -150
-4 -150 38 0 101 35 125 69 12 16 30 71 41 123 28 135 37 164 81 254 42 86 96
154 123 154 12 0 16 -10 16 -48 0 -48 -32 -244 -70 -426 -11 -54 -20 -104 -20
-112 0 -30 109 -6 139 30 7 9 26 78 41 153 15 76 39 167 54 202 48 118 119
210 152 197 21 -8 17 -49 -26 -279 -49 -258 -39 -317 48 -317 88 0 209 133
215 237 3 57 -15 48 -53 -25 -35 -66 -64 -88 -81 -61 -9 15 -10 5 36 245 43
222 45 295 10 329 -54 55 -141 13 -246 -118 l-39 -49 0 72 c0 63 -3 74 -26 97
-59 59 -156 -1 -279 -171 l-20 -28 3 90 c4 81 2 92 -17 111 -24 24 -53 26 -98
6z"/>
<path d="M7962 5374 c-80 -40 -162 -149 -162 -217 0 -41 14 -33 54 33 25 40
44 60 57 60 27 0 25 -15 -21 -245 -59 -295 -54 -355 34 -355 98 0 226 145 226
257 0 37 -18 26 -45 -27 -29 -58 -58 -90 -80 -90 -22 0 -20 16 31 278 48 250
49 290 11 317 -30 21 -45 19 -105 -11z"/>
<path d="M8482 5379 c-76 -38 -161 -154 -162 -221 0 -42 16 -34 55 27 37 58
59 75 76 58 16 -16 -51 -414 -97 -570 -6 -21 -3 -23 26 -23 43 0 106 37 130
75 10 16 30 80 43 140 14 61 39 141 57 177 61 131 157 236 180 199 10 -18 5
-63 -32 -256 -52 -274 -43 -335 47 -335 90 0 200 122 213 236 6 61 -12 57 -42
-8 -26 -60 -58 -93 -81 -85 -21 9 -20 21 25 252 44 225 47 259 26 309 -19 46
-59 55 -123 26 -52 -23 -99 -64 -173 -152 l-49 -57 6 88 c6 86 5 90 -20 115
-32 31 -49 32 -105 5z"/>
<path d="M4857 4474 c-3 -3 -55 -10 -115 -14 -225 -17 -274 -62 -452 -420 -56
-113 -143 -279 -193 -369 -81 -148 -91 -162 -99 -140 -27 70 -109 465 -115
549 l-6 95 -152 0 c-143 -1 -155 -2 -201 -26 -53 -27 -88 -70 -104 -128 -15
-54 3 -61 45 -18 22 22 49 39 71 43 37 7 142 0 152 -10 6 -7 -132 -681 -153
-745 -8 -24 -35 -65 -60 -92 -30 -32 -45 -57 -45 -75 0 -21 3 -25 18 -19 58
24 84 25 149 9 63 -16 68 -16 99 1 33 18 84 80 84 103 0 9 -13 11 -50 6 -72
-9 -83 -3 -66 38 8 18 35 140 62 271 26 130 49 235 51 233 12 -12 85 -358 100
-471 9 -71 17 -131 18 -133 15 -22 133 127 164 205 28 71 140 293 191 378 l42
70 -7 -65 c-3 -36 -16 -163 -29 -283 l-22 -217 -52 -48 c-39 -36 -52 -55 -52
-76 0 -23 3 -27 18 -21 59 24 86 26 150 10 83 -21 114 -13 168 41 63 62 59 75
-20 67 -73 -7 -82 0 -62 48 8 19 23 133 35 254 53 536 70 649 118 737 35 66
85 96 174 104 35 3 74 7 86 10 35 7 83 53 83 80 0 23 -10 31 -23 18z"/>
<path d="M5714 4440 c-112 -22 -157 -45 -213 -105 -83 -90 -121 -211 -185
-592 -94 -556 -97 -587 -54 -632 22 -25 76 -28 116 -7 70 37 152 161 152 230
0 48 -13 46 -36 -6 -36 -80 -84 -120 -98 -82 -7 18 115 790 139 885 35 136
102 219 177 219 50 0 93 20 116 54 25 37 23 57 -6 55 -9 -1 -58 -9 -108 -19z"/>
<path d="M4978 4124 c-37 -20 -57 -61 -72 -151 -15 -87 -14 -89 58 -70 62 15
85 45 102 134 20 103 20 103 -23 103 -21 -1 -50 -7 -65 -16z"/>
<path d="M4895 3821 c-79 -36 -175 -160 -175 -227 0 -36 13 -28 57 36 45 64
73 77 73 33 0 -15 -18 -120 -40 -233 -42 -216 -47 -268 -29 -303 16 -30 28
-37 70 -37 90 0 218 144 219 248 0 40 -14 41 -30 2 -22 -53 -69 -110 -90 -110
-11 0 -20 7 -20 15 0 8 21 119 46 247 48 246 51 311 18 335 -24 18 -51 16 -99
-6z"/>
<path d="M6060 3824 c-145 -39 -288 -194 -348 -381 -41 -124 -40 -253 1 -315
19 -27 30 -34 64 -36 66 -5 159 55 229 147 l34 44 0 -70 c0 -92 21 -123 84
-123 90 0 196 123 208 239 4 49 -16 49 -38 -1 -25 -56 -61 -98 -85 -98 -16 0
-19 7 -19 41 0 47 75 464 91 505 12 33 4 39 -64 54 -62 13 -90 12 -157 -6z
m52 -115 c17 -9 19 -17 13 -56 -18 -122 -96 -281 -179 -367 -78 -80 -114 -57
-101 63 14 118 52 225 108 304 40 57 110 82 159 56z"/>
<path d="M6663 3825 c-72 -31 -173 -166 -173 -230 0 -36 22 -31 45 11 40 75
95 110 95 61 0 -38 -69 -436 -85 -490 -22 -73 -20 -87 10 -87 37 0 100 35 123
68 11 15 32 79 46 142 29 127 72 227 133 308 48 63 78 86 100 78 19 -8 14 -52
-28 -274 -48 -255 -39 -322 45 -322 55 0 114 39 162 106 51 71 77 174 45 174
-4 0 -18 -22 -31 -50 -39 -82 -81 -114 -95 -71 -3 10 12 111 35 223 54 274 52
340 -12 362 -59 21 -184 -65 -279 -192 l-25 -33 4 95 c4 85 2 96 -17 115 -24
24 -53 26 -98 6z"/>
</g>
</svg>
